<svg xmlns="http://www.w3.org/2000/svg" width="500" height="500" viewBox="0 0 500 500">
<g>
<path d="M 266.39 329.25 C266.00,330.56 264.80,331.00 261.60,331.00 C259.25,331.00 257.03,330.70 256.67,330.33 C256.30,329.97 256.00,287.07 256.00,235.00 L 256.00 140.33 L 272.25 137.03 C281.19,135.21 294.58,132.15 302.00,130.23 C328.85,123.27 331.75,122.78 346.50,122.64 C359.16,122.51 360.98,122.72 365.49,124.80 C374.92,129.15 378.00,133.69 378.00,143.27 C378.00,148.87 377.43,150.77 373.25,159.08 C365.89,173.72 351.96,190.85 328.84,213.68 C317.81,224.57 314.75,227.05 311.15,227.99 C308.76,228.62 306.57,228.90 306.28,228.62 C306.00,228.33 308.94,222.79 312.81,216.30 C322.23,200.53 328.86,186.54 329.63,180.80 C330.20,176.50 330.00,175.85 327.21,173.05 C324.40,170.24 323.61,170.00 317.29,170.00 C311.46,170.00 299.48,172.18 298.19,173.48 C297.97,173.70 297.19,176.94 296.46,180.69 C292.43,201.31 266.83,327.77 266.39,329.25 ZM 170.66 264.51 C162.17,266.13 146.77,266.33 140.73,264.91 C128.06,261.92 120.77,252.71 122.41,241.74 C124.52,227.69 139.52,206.71 168.80,176.83 C182.89,162.46 184.58,161.06 189.14,159.97 C191.87,159.31 194.28,158.95 194.50,159.17 C194.71,159.38 191.92,164.49 188.29,170.53 C179.10,185.81 172.04,200.89 171.36,206.67 C170.27,215.99 177.28,220.34 189.79,218.11 C201.66,215.99 200.75,217.40 205.61,193.50 C207.96,181.95 214.87,148.00 220.96,118.05 C227.21,87.27 232.56,63.26 233.26,62.82 C235.15,61.61 240.45,61.85 241.80,63.20 C243.59,64.99 243.54,245.91 241.75,246.42 C229.71,249.85 176.45,263.41 170.66,264.51 ZM 384.00 370.25 C381.22,371.64 377.89,372.00 367.75,372.00 L 355.00 372.00 L 355.00 342.00 L 367.53 342.00 C385.09,342.00 390.07,344.60 391.56,354.56 C392.46,360.55 388.98,367.76 384.00,370.25 ZM 154.00 361.00 L 154.00 372.00 L 147.00 372.00 L 147.00 342.00 L 161.75 342.02 C169.86,342.02 177.15,342.44 177.95,342.95 C180.02,344.26 180.62,355.88 178.75,358.38 C177.97,359.41 175.69,360.54 173.69,360.88 L 170.04 361.50 L 182.50 371.50 L 177.59 371.81 C172.82,372.11 172.52,371.96 167.06,366.56 C162.27,361.82 160.90,361.00 157.72,361.00 ZM 266.00 362.50 L 266.00 372.00 L 260.00 372.00 L 260.00 342.00 L 262.62 342.00 C264.47,342.00 268.58,344.80 276.58,351.50 C282.81,356.73 288.16,361.00 288.46,361.00 C288.76,361.00 289.00,356.73 289.00,351.50 L 289.00 342.00 L 295.98 342.00 L 295.84 372.00 L 293.39 372.00 C291.76,372.00 287.11,368.82 279.53,362.50 C273.25,357.27 267.64,353.00 267.06,353.00 C266.39,353.00 266.00,356.49 266.00,362.50 ZM 194.80 369.01 C193.41,371.45 192.44,372.00 189.56,372.00 L 186.02 372.00 L 188.85 367.25 C190.41,364.64 194.27,357.89 197.45,352.25 C203.11,342.17 203.27,342.00 206.86,342.01 C210.49,342.01 210.51,342.04 218.50,356.07 C222.90,363.80 226.65,370.55 226.83,371.06 C227.02,371.58 225.38,372.00 223.20,372.00 C219.75,372.00 219.09,371.62 218.00,369.00 L 216.76 366.00 L 196.50 366.01 ZM 342.00 369.50 L 342.00 372.00 L 311.00 372.00 L 311.00 342.00 L 342.00 342.00 L 342.00 347.00 L 317.87 347.00 L 318.50 353.50 L 325.25 353.80 C331.67,354.08 332.00,354.21 332.00,356.55 C332.00,358.92 331.77,359.00 325.00,359.00 L 318.00 359.00 L 318.00 365.72 L 324.15 366.36 C327.53,366.71 332.93,367.00 336.15,367.00 C341.72,367.00 342.00,367.12 342.00,369.50 ZM 362.75 366.44 C363.16,366.87 366.88,366.95 371.00,366.61 C380.31,365.85 383.36,363.92 383.82,358.50 C384.56,349.63 381.18,347.00 369.03,347.00 L 362.00 347.00 L 362.00 356.33 C362.00,361.47 362.34,366.02 362.75,366.44 ZM 124.00 347.00 L 124.00 372.00 L 117.00 372.00 L 117.00 347.00 L 110.00 347.00 C103.20,347.00 103.00,346.93 103.00,344.50 L 103.00 342.00 L 138.00 342.00 L 138.00 344.50 C138.00,346.93 137.80,347.00 131.00,347.00 ZM 244.00 342.00 L 244.00 372.00 L 237.00 372.00 L 237.00 342.00 ZM 154.00 346.92 L 154.00 355.08 L 163.25 354.79 L 172.50 354.50 L 172.50 347.50 L 163.25 347.21 ZM 202.72 354.50 L 200.02 360.00 L 212.98 360.00 L 210.28 354.50 C208.80,351.48 207.10,349.00 206.50,349.00 C205.90,349.00 204.20,351.48 202.72,354.50 Z" fill="rgb(2,2,1)"/>
<path d="M 117.00 348.15 L 117.00 370.02 L 116.80 365.83 L 116.50 359.67 L 103.04 359.91 C95.63,360.04 89.22,360.37 88.79,360.63 C88.35,360.90 88.00,362.67 88.00,364.56 C88.00,367.47 87.65,368.00 85.75,367.99 C82.86,367.97 76.12,365.62 68.38,361.94 C61.82,358.81 59.43,356.72 60.49,355.02 C62.15,352.33 82.26,344.00 87.10,344.00 C89.00,344.00 89.20,344.41 88.70,347.44 C87.86,352.66 89.09,353.10 103.64,352.78 L 116.50 352.50 L 116.82 349.75 ZM 311.59 342.00 C311.92,341.88 312.31,341.79 312.79,341.69 C315.04,341.24 316.02,340.07 317.87,335.61 C320.59,329.05 326.22,323.10 332.76,319.87 C336.81,317.88 339.04,317.53 348.00,317.52 L 358.50 317.50 L 372.95 323.35 C389.11,329.88 393.06,330.84 396.42,329.04 C398.32,328.03 399.28,328.09 401.86,329.43 C403.59,330.32 405.00,331.43 405.00,331.89 C405.00,333.45 393.18,333.80 386.08,332.45 C382.18,331.71 374.14,329.53 368.21,327.61 C362.28,325.69 355.14,323.82 352.35,323.45 C342.12,322.09 331.00,327.97 327.38,336.64 C325.41,341.34 326.33,341.96 335.25,341.98 C336.13,341.99 336.90,341.99 337.57,342.00 ZM 361.44 394.35 C348.88,397.54 341.72,397.22 332.71,393.08 C326.00,389.99 318.97,381.57 316.60,373.75 C316.24,372.59 315.05,372.00 313.09,372.00 L 326.10 372.00 L 327.19 375.25 C327.79,377.04 329.37,379.97 330.70,381.76 C337.54,390.97 350.34,392.03 371.50,385.13 C384.85,380.78 395.59,379.14 402.40,380.42 C406.48,381.18 406.33,382.26 401.85,384.58 C399.10,386.00 398.66,386.00 397.08,384.57 C394.01,381.79 388.13,383.08 374.44,389.52 C370.56,391.35 364.71,393.52 361.44,394.35 ZM 334.00 347.00 C327.04,347.00 326.00,347.23 326.03,348.75 C326.11,352.94 327.91,353.50 341.15,353.50 L 353.79 353.50 L 354.45 347.68 L 355.00 342.87 L 355.00 369.27 L 354.64 365.83 C354.29,362.44 353.88,359.58 353.75,359.47 C353.61,359.37 347.66,359.56 340.53,359.89 C328.04,360.48 327.51,360.59 326.34,362.94 C325.67,364.29 325.35,365.75 325.62,366.19 C325.71,366.35 326.22,366.49 327.01,366.61 C325.97,366.53 325.00,366.45 324.15,366.36 L 318.00 365.72 L 318.00 359.00 L 325.00 359.00 C331.77,359.00 332.00,358.92 332.00,356.55 C332.00,354.21 331.67,354.08 325.25,353.80 L 318.50 353.50 L 317.87 347.00 ZM 390.93 361.32 C391.63,359.10 391.89,356.75 391.56,354.56 C391.39,353.45 391.18,352.43 390.92,351.49 L 392.16 354.00 L 402.33 353.97 C409.29,353.95 413.06,353.51 414.28,352.58 C415.79,351.44 417.26,351.50 423.86,352.97 C431.98,354.78 435.88,356.36 434.38,357.24 C433.65,357.67 424.12,360.07 417.81,361.42 C416.89,361.62 415.24,361.15 414.15,360.39 C412.93,359.54 408.38,358.82 402.33,358.53 L 392.50 358.05 ZM 311.00 371.76 C310.13,371.35 310.00,370.23 309.80,367.26 C309.51,362.72 309.36,362.50 306.00,361.87 C304.08,361.52 301.04,360.89 299.25,360.49 L 296.00 359.75 L 296.00 365.88 C296.00,367.77 295.97,369.10 295.85,370.02 L 295.97 344.77 C296.07,345.48 296.14,346.33 296.20,347.36 L 296.50 352.61 L 303.25 351.17 L 310.00 349.72 L 310.00 345.99 C310.00,343.77 310.15,342.82 311.00,342.28 ZM 147.00 343.15 L 147.00 369.72 L 146.58 366.00 L 145.90 360.00 L 135.95 360.00 C130.48,360.00 125.66,359.89 125.25,359.75 C124.84,359.61 124.37,362.31 124.20,365.75 L 124.00 370.00 L 124.00 353.00 L 145.77 353.00 L 146.46 347.50 ZM 236.00 342.00 L 237.00 342.00 L 237.00 369.12 C237.00,367.54 236.72,364.84 236.38,363.12 L 235.75 360.00 L 220.81 360.00 L 223.90 365.48 C225.61,368.50 227.00,371.20 227.00,371.48 C227.00,371.75 225.44,371.97 223.46,372.00 C225.51,371.97 227.01,371.56 226.83,371.06 C226.65,370.55 222.90,363.80 218.50,356.07 C212.20,345.01 210.86,342.65 208.79,342.15 C210.57,342.47 211.40,343.59 213.54,347.27 L 216.58 352.50 L 226.29 352.79 L 236.00 353.07 ZM 260.00 342.18 L 260.00 370.33 C259.86,369.94 259.74,369.46 259.62,368.88 C259.28,367.16 259.00,364.46 259.00,362.88 L 259.00 360.00 L 244.00 360.00 L 244.00 353.00 L 259.00 353.00 L 259.00 347.50 C259.00,343.74 259.01,342.55 260.00,342.18 ZM 205.10 342.09 C203.01,342.44 202.02,344.12 197.45,352.25 C195.94,354.93 194.27,357.87 192.77,360.49 L 186.11 360.21 C182.32,360.05 177.15,360.27 174.63,360.71 L 174.10 360.80 C176.00,360.39 178.02,359.34 178.75,358.38 C180.10,356.58 180.16,350.03 179.32,346.03 C179.50,346.76 179.65,347.57 179.74,348.38 L 180.26 353.00 L 196.98 353.00 L 200.09 347.50 C202.39,343.43 203.16,342.35 205.10,342.09 ZM 294.92 342.00 L 289.00 342.00 L 289.00 351.50 C289.00,356.73 288.76,361.00 288.46,361.00 C288.16,361.00 282.81,356.73 276.58,351.50 C270.02,346.01 266.08,343.14 263.85,342.28 C265.76,342.87 268.13,344.44 271.81,347.50 C278.53,353.08 280.59,353.83 284.07,351.96 C285.64,351.12 286.00,349.84 286.00,345.05 C286.00,341.81 286.27,338.45 286.61,337.58 C287.52,335.21 289.90,335.68 291.17,338.48 C291.79,339.85 293.11,341.22 294.10,341.53 C294.42,341.63 294.69,341.78 294.92,342.00 ZM 362.03 359.00 C362.01,358.14 362.00,357.25 362.00,356.33 L 362.00 354.00 L 372.50 354.00 C382.42,354.00 383.00,353.89 383.00,351.95 C383.00,351.77 382.98,351.60 382.94,351.43 C383.84,353.15 384.07,355.46 383.82,358.50 C383.77,359.10 383.68,359.67 383.56,360.19 C383.64,359.49 383.40,359.00 382.75,359.00 ZM 202.72 354.50 C203.26,353.40 203.82,352.38 204.36,351.52 C203.99,352.55 204.41,353.00 205.73,353.00 C206.79,353.00 207.94,352.73 208.26,352.40 C208.51,352.15 208.61,351.81 208.59,351.44 C209.14,352.31 209.73,353.37 210.28,354.50 L 212.98 360.00 L 200.02 360.00 ZM 279.90 362.81 C276.72,360.34 275.34,360.00 271.27,360.00 L 266.03 360.00 C266.12,355.53 266.49,353.00 267.06,353.00 C267.64,353.00 273.25,357.27 279.53,362.50 C279.65,362.60 279.77,362.71 279.90,362.81 ZM 294.16 372.00 C293.15,372.00 291.81,373.12 291.18,374.50 C290.56,375.88 289.64,377.00 289.14,377.00 C287.36,377.00 285.85,374.04 286.15,371.15 C286.39,368.86 285.79,367.74 282.44,364.89 C288.31,369.62 291.98,372.00 293.39,372.00 ZM 172.50 351.00 L 172.50 354.50 L 163.25 354.79 L 154.00 355.08 L 154.00 353.00 L 162.93 353.00 C170.97,353.00 171.93,352.80 172.50,351.01 ZM 380.46 364.46 C378.55,365.57 375.67,366.20 371.48,366.57 C375.07,366.11 378.76,365.32 380.46,364.46 ZM 380.64 348.99 C378.24,347.74 374.17,347.00 369.03,347.00 C374.58,347.00 378.31,347.55 380.64,348.99 ZM 387.01 345.44 C385.36,344.22 383.17,343.39 380.26,342.85 C383.48,343.30 385.48,344.08 387.01,345.44 ZM 170.67 347.44 L 172.50 347.50 L 172.50 348.38 C172.18,347.95 171.60,347.65 170.67,347.44 ZM 355.10 342.00 L 355.12 341.85 L 361.49 342.00 ZM 384.00 370.25 C385.36,369.57 386.61,368.53 387.69,367.27 C386.55,368.77 385.24,369.81 383.40,370.53 C383.61,370.44 383.81,370.35 384.00,370.25 ZM 177.90 342.92 C176.91,342.43 169.77,342.03 161.82,342.02 C169.89,342.02 177.11,342.42 177.86,342.89 C177.87,342.90 177.89,342.91 177.90,342.92 ZM 154.00 346.92 L 156.41 347.00 L 154.00 347.00 ZM 383.03 361.75 C382.63,362.58 382.08,363.29 381.33,363.88 C382.05,363.26 382.64,362.49 383.03,361.75 ZM 170.25 361.46 L 170.04 361.50 L 182.50 371.50 L 170.04 361.50 ZM 342.00 369.50 C342.00,368.93 341.98,368.49 341.88,368.15 C341.99,368.49 342.00,368.93 342.00,369.50 ZM 192.40 371.59 C191.69,371.90 190.81,372.00 189.58,372.00 C190.81,372.00 191.69,371.90 192.40,371.59 ZM 206.58 349.01 C206.54,349.01 206.51,349.00 206.47,349.00 C206.48,349.00 206.49,349.00 206.50,349.00 C206.52,349.00 206.55,349.00 206.58,349.01 Z" fill="rgb(218,163,93)"/>
<path d="M 0.00 250.00 L 0.00 0.00 L 250.00 0.00 L 500.00 0.00 L 500.00 250.00 L 500.00 500.00 L 250.00 500.00 L 0.00 500.00 L 0.00 250.00 ZM 361.44 394.35 C364.71,393.52 370.56,391.35 374.44,389.52 C388.13,383.08 394.01,381.79 397.08,384.57 C398.66,386.00 399.10,386.00 401.85,384.58 C406.33,382.26 406.48,381.18 402.40,380.42 C395.59,379.14 384.85,380.78 371.50,385.13 C350.34,392.03 337.54,390.97 330.70,381.76 C329.37,379.97 327.79,377.04 327.19,375.25 L 326.10 372.00 L 334.05 372.00 C341.86,372.00 342.00,371.96 342.00,369.50 C342.00,367.04 341.86,367.00 334.06,367.00 C329.69,367.00 325.89,366.64 325.62,366.19 C325.35,365.75 325.67,364.29 326.34,362.94 C327.51,360.59 328.04,360.48 340.53,359.89 C347.66,359.56 353.61,359.37 353.75,359.47 C353.88,359.58 354.29,362.44 354.64,365.83 L 355.28 372.00 L 367.89 372.00 C383.60,372.00 386.34,370.92 390.00,363.28 L 392.50 358.05 L 402.33 358.53 C408.38,358.82 412.93,359.54 414.15,360.39 C415.24,361.15 416.89,361.62 417.81,361.42 C424.12,360.07 433.65,357.67 434.38,357.24 C435.88,356.36 431.98,354.78 423.86,352.97 C417.26,351.50 415.79,351.44 414.28,352.58 C413.06,353.51 409.29,353.95 402.33,353.97 L 392.16 354.00 L 390.33 350.31 C386.90,343.41 384.63,342.54 368.99,342.18 L 355.12 341.85 L 354.45 347.68 L 353.79 353.50 L 341.15 353.50 C327.91,353.50 326.11,352.94 326.03,348.75 C326.00,347.23 327.04,347.00 334.00,347.00 C341.87,347.00 342.00,346.96 342.00,344.50 C342.00,342.08 341.78,342.00 335.25,341.98 C326.33,341.96 325.41,341.34 327.38,336.64 C331.00,327.97 342.12,322.09 352.35,323.45 C355.14,323.82 362.28,325.69 368.21,327.61 C374.14,329.53 382.18,331.71 386.08,332.45 C393.18,333.80 405.00,333.45 405.00,331.89 C405.00,331.43 403.59,330.32 401.86,329.43 C399.28,328.09 398.32,328.03 396.42,329.04 C393.06,330.84 389.11,329.88 372.95,323.35 L 358.50 317.50 L 348.00 317.52 C339.04,317.53 336.81,317.88 332.76,319.87 C326.22,323.10 320.59,329.05 317.87,335.61 C316.02,340.07 315.04,341.24 312.79,341.69 C310.33,342.18 310.00,342.70 310.00,345.99 L 310.00 349.72 L 303.25 351.17 L 296.50 352.61 L 296.20 347.36 C295.97,343.34 295.48,341.97 294.10,341.53 C293.11,341.22 291.79,339.85 291.17,338.48 C289.90,335.68 287.52,335.21 286.61,337.58 C286.27,338.45 286.00,341.81 286.00,345.05 C286.00,349.84 285.64,351.12 284.07,351.96 C280.59,353.83 278.53,353.08 271.81,347.50 C266.93,343.45 264.37,342.00 262.09,342.00 C259.01,342.00 259.00,342.02 259.00,347.50 L 259.00 353.00 L 251.50 353.00 L 244.00 353.00 L 244.00 347.50 L 244.00 342.00 L 240.00 342.00 L 236.00 342.00 L 236.00 347.54 L 236.00 353.07 L 226.29 352.79 L 216.58 352.50 L 213.54 347.27 C210.76,342.48 210.19,342.03 206.85,342.02 C203.45,342.00 202.97,342.39 200.09,347.50 L 196.98 353.00 L 188.62 353.00 L 180.26 353.00 L 179.74 348.38 C179.45,345.83 178.61,343.37 177.86,342.89 C177.11,342.42 169.89,342.02 161.82,342.02 L 147.14 342.00 L 146.46 347.50 L 145.77 353.00 L 134.88 353.00 L 124.00 353.00 L 124.00 350.00 L 124.00 347.00 L 131.00 347.00 C137.80,347.00 138.00,346.93 138.00,344.50 L 138.00 342.00 L 120.50 342.00 L 103.00 342.00 L 103.00 344.50 C103.00,346.93 103.20,347.00 110.07,347.00 L 117.13 347.00 L 116.82 349.75 L 116.50 352.50 L 103.64 352.78 C89.09,353.10 87.86,352.66 88.70,347.44 C89.20,344.41 89.00,344.00 87.10,344.00 C82.26,344.00 62.15,352.33 60.49,355.02 C59.43,356.72 61.82,358.81 68.38,361.94 C76.12,365.62 82.86,367.97 85.75,367.99 C87.65,368.00 88.00,367.47 88.00,364.56 C88.00,362.67 88.35,360.90 88.79,360.63 C89.22,360.37 95.63,360.04 103.04,359.91 L 116.50 359.67 L 116.80 365.83 L 117.10 372.00 L 120.50 372.00 L 123.90 372.00 L 124.20 365.75 C124.37,362.31 124.84,359.61 125.25,359.75 C125.66,359.89 130.48,360.00 135.95,360.00 L 145.90 360.00 L 146.58 366.00 L 147.26 372.00 L 150.63 372.00 L 154.00 372.00 L 154.00 366.50 L 154.00 361.00 L 157.72 361.00 C160.90,361.00 162.27,361.82 167.06,366.56 C172.52,371.96 172.82,372.11 177.59,371.81 L 182.50 371.50 L 176.27 366.50 L 170.04 361.50 L 174.63 360.71 C177.15,360.27 182.32,360.05 186.11,360.21 L 193.00 360.50 L 189.53 366.25 L 186.06 372.00 L 189.58 372.00 C192.44,372.00 193.41,371.44 194.80,369.01 L 196.50 366.01 L 206.63 366.01 L 216.76 366.00 L 218.00 369.00 C219.08,371.60 219.75,372.00 223.12,372.00 C225.25,372.00 227.00,371.77 227.00,371.48 C227.00,371.20 225.61,368.50 223.90,365.48 L 220.81 360.00 L 228.28 360.00 L 235.75 360.00 L 236.38 363.12 C236.72,364.84 237.00,367.54 237.00,369.12 C237.00,371.74 237.31,372.00 240.50,372.00 L 244.00 372.00 L 244.00 366.00 L 244.00 360.00 L 251.50 360.00 L 259.00 360.00 L 259.00 362.88 C259.00,364.46 259.28,367.16 259.62,368.88 C260.15,371.51 260.70,372.00 263.12,372.00 C265.97,372.00 266.00,371.94 266.00,366.00 L 266.00 360.00 L 271.27 360.00 C275.96,360.00 277.08,360.45 281.50,364.10 C285.68,367.55 286.41,368.66 286.15,371.15 C285.85,374.04 287.36,377.00 289.14,377.00 C289.64,377.00 290.56,375.88 291.18,374.50 C291.81,373.12 293.15,372.00 294.16,372.00 C295.75,372.00 296.00,371.16 296.00,365.88 L 296.00 359.75 L 299.25 360.49 C301.04,360.89 304.08,361.52 306.00,361.87 C309.36,362.50 309.51,362.72 309.80,367.26 C310.10,371.78 310.25,372.00 313.09,372.00 C315.05,372.00 316.24,372.59 316.60,373.75 C318.97,381.57 326.00,389.99 332.71,393.08 C341.72,397.22 348.88,397.54 361.44,394.35 ZM 266.39 329.25 C266.83,327.77 292.43,201.31 296.46,180.69 C297.19,176.94 297.97,173.70 298.19,173.48 C299.48,172.18 311.46,170.00 317.29,170.00 C323.61,170.00 324.40,170.24 327.21,173.05 C330.00,175.85 330.20,176.50 329.63,180.80 C328.86,186.54 322.23,200.53 312.81,216.30 C308.94,222.79 306.00,228.33 306.28,228.62 C306.57,228.90 308.76,228.62 311.15,227.99 C314.75,227.05 317.81,224.57 328.84,213.68 C351.96,190.85 365.89,173.72 373.25,159.08 C377.43,150.77 378.00,148.87 378.00,143.27 C378.00,133.69 374.92,129.15 365.49,124.80 C360.98,122.72 359.16,122.51 346.50,122.64 C331.75,122.78 328.85,123.27 302.00,130.23 C294.58,132.15 281.19,135.21 272.25,137.03 L 256.00 140.33 L 256.00 235.00 C256.00,287.07 256.30,329.97 256.67,330.33 C257.03,330.70 259.25,331.00 261.60,331.00 C264.80,331.00 266.00,330.56 266.39,329.25 ZM 170.66 264.51 C176.45,263.41 229.71,249.85 241.75,246.42 C243.54,245.91 243.59,64.99 241.80,63.20 C240.45,61.85 235.15,61.61 233.26,62.82 C232.56,63.26 227.21,87.27 220.96,118.05 C214.87,148.00 207.96,181.95 205.61,193.50 C200.75,217.40 201.66,215.99 189.79,218.11 C177.28,220.34 170.27,215.99 171.36,206.67 C172.04,200.89 179.10,185.81 188.29,170.53 C191.92,164.49 194.71,159.38 194.50,159.17 C194.28,158.95 191.87,159.31 189.14,159.97 C184.58,161.06 182.89,162.46 168.80,176.83 C139.52,206.71 124.52,227.69 122.41,241.74 C120.77,252.71 128.06,261.92 140.73,264.91 C146.77,266.33 162.17,266.13 170.66,264.51 ZM 362.75 366.44 C362.34,366.02 362.00,364.17 362.00,362.33 L 362.00 359.00 L 372.00 359.00 C377.50,359.00 382.34,359.00 382.75,359.00 C384.48,359.00 383.31,362.42 381.00,364.14 C378.35,366.11 364.16,367.90 362.75,366.44 ZM 362.00 350.50 L 362.00 347.00 L 369.03 347.00 C377.43,347.00 383.00,348.98 383.00,351.95 C383.00,353.89 382.42,354.00 372.50,354.00 L 362.00 354.00 L 362.00 350.50 ZM 154.00 350.00 L 154.00 347.00 L 162.94 347.00 C172.16,347.00 173.58,347.59 172.50,351.01 C171.93,352.80 170.97,353.00 162.93,353.00 L 154.00 353.00 L 154.00 350.00 ZM 204.39 351.42 C204.73,350.55 205.00,349.65 205.00,349.42 C205.00,349.19 205.63,349.00 206.39,349.00 C207.90,349.00 209.24,351.43 208.26,352.40 C207.94,352.73 206.79,353.00 205.73,353.00 C204.37,353.00 203.97,352.53 204.39,351.42 Z" fill="rgb(254,254,254)"/>
</g>
</svg>